<svg xmlns="http://www.w3.org/2000/svg" xmlns:xlink="http://www.w3.org/1999/xlink" width="500" zoomAndPan="magnify" viewBox="0 0 375 374.999991" height="500" preserveAspectRatio="xMidYMid meet" version="1.0"><defs><g/><clipPath id="id1"><path d="M 90.699219 74.242188 L 284.199219 74.242188 L 284.199219 187.492188 L 90.699219 187.492188 Z M 90.699219 74.242188 " clip-rule="nonzero"/></clipPath></defs><g clip-path="url(#id1)"><path fill="#ffffff" d="M 284.035156 74.597656 C 283.976562 74.492188 283.871094 74.367188 283.71875 74.367188 L 238.769531 74.28125 C 238.726562 74.28125 238.691406 74.289062 238.65625 74.308594 L 238.636719 74.320312 C 238.546875 74.371094 238.460938 74.480469 238.410156 74.609375 L 226.800781 105.023438 L 215.171875 136.839844 L 214.128906 134 L 202.992188 103.535156 C 202.820312 103.066406 202.792969 102.554688 202.90625 102.078125 L 170.632812 102.078125 L 199.117188 176.730469 L 203.089844 187.144531 C 203.167969 187.34375 203.308594 187.472656 203.449219 187.472656 L 227.390625 187.472656 C 227.53125 187.472656 227.671875 187.34375 227.75 187.144531 L 260.328125 101.761719 C 260.609375 101.027344 261.210938 100.554688 261.863281 100.554688 L 274.300781 100.53125 C 274.441406 100.53125 274.582031 100.402344 274.65625 100.203125 L 284.082031 75.375 C 284.195312 75.070312 284.132812 74.773438 284.035156 74.597656 Z M 136.128906 74.28125 C 136.273438 74.28125 136.414062 74.410156 136.488281 74.609375 L 175.777344 177.574219 L 179.171875 186.46875 C 179.285156 186.769531 179.222656 187.066406 179.125 187.242188 C 179.066406 187.347656 178.964844 187.472656 178.8125 187.472656 L 147.507812 187.472656 C 147.367188 187.472656 147.226562 187.34375 147.148438 187.144531 L 114.566406 101.757812 C 114.289062 101.03125 113.683594 100.554688 113.03125 100.554688 L 100.597656 100.53125 C 100.457031 100.53125 100.316406 100.402344 100.238281 100.199219 L 90.816406 75.375 C 90.703125 75.070312 90.765625 74.773438 90.863281 74.597656 C 90.921875 74.492188 91.023438 74.367188 91.175781 74.367188 L 104.546875 74.386719 L 104.707031 74.308594 C 104.746094 74.289062 104.785156 74.28125 104.824219 74.28125 L 136.128906 74.28125 " fill-opacity="1" fill-rule="nonzero"/></g><g fill="#ffffff" fill-opacity="1"><g transform="translate(14.161512, 248.967114)"><g><path d="M 3.738281 0 L 24.339844 0 L 25.667969 -17.210938 C 25.863281 -19.324219 26.011719 -21.386719 26.207031 -23.503906 L 27.339844 -23.503906 C 27.582031 -19.914062 27.683594 -19.570312 27.929688 -17.210938 L 29.304688 0 L 49.859375 0 C 50.203125 -8.652344 52.121094 -28.664062 53.546875 -37.515625 L 38.941406 -37.515625 C 38.402344 -30.042969 37.859375 -21.734375 37.074219 -12.488281 L 36.089844 -12.488281 L 33.484375 -37.515625 L 20.160156 -37.515625 L 17.503906 -12.488281 L 16.472656 -12.488281 C 15.980469 -18.289062 15.144531 -29.992188 14.652344 -37.515625 L 0 -37.515625 C 1.476562 -27.386719 2.457031 -17.40625 3.738281 0 Z M 3.738281 0 "/></g></g></g><g fill="#ffffff" fill-opacity="1"><g transform="translate(67.706947, 248.967114)"><g><path d="M 19.765625 0.6875 C 32.207031 0.6875 37.761719 -4.820312 37.761719 -18.535156 C 37.761719 -32.597656 32.5 -38.203125 19.324219 -38.203125 C 6.589844 -38.203125 1.476562 -32.648438 1.476562 -18.832031 C 1.476562 -4.867188 6.292969 0.6875 19.765625 0.6875 Z M 19.71875 -9.734375 C 17.355469 -9.734375 16.078125 -13.375 16.078125 -18.929688 C 16.078125 -22.46875 16.226562 -24.832031 16.71875 -26.699219 C 17.503906 -27.386719 18.683594 -27.730469 19.519531 -27.730469 C 21.832031 -27.730469 23.160156 -24.042969 23.160156 -18.636719 C 23.160156 -15.144531 22.914062 -12.488281 22.371094 -10.523438 C 21.78125 -9.933594 20.453125 -9.734375 19.71875 -9.734375 Z M 19.71875 -9.734375 "/></g></g></g><g fill="#ffffff" fill-opacity="1"><g transform="translate(106.944094, 248.967114)"><g><path d="M 19.765625 0.6875 C 32.207031 0.6875 37.761719 -4.820312 37.761719 -18.535156 C 37.761719 -32.597656 32.5 -38.203125 19.324219 -38.203125 C 6.589844 -38.203125 1.476562 -32.648438 1.476562 -18.832031 C 1.476562 -4.867188 6.292969 0.6875 19.765625 0.6875 Z M 19.71875 -9.734375 C 17.355469 -9.734375 16.078125 -13.375 16.078125 -18.929688 C 16.078125 -22.46875 16.226562 -24.832031 16.71875 -26.699219 C 17.503906 -27.386719 18.683594 -27.730469 19.519531 -27.730469 C 21.832031 -27.730469 23.160156 -24.042969 23.160156 -18.636719 C 23.160156 -15.144531 22.914062 -12.488281 22.371094 -10.523438 C 21.78125 -9.933594 20.453125 -9.734375 19.71875 -9.734375 Z M 19.71875 -9.734375 "/></g></g></g><g fill="#ffffff" fill-opacity="1"><g transform="translate(146.181242, 248.967114)"><g><path d="M 1.964844 0 L 20.75 0 C 33.1875 0 37.859375 -6.144531 37.859375 -18.78125 C 37.859375 -31.171875 32.402344 -37.515625 19.617188 -37.515625 L 1.964844 -37.515625 C 2.164062 -31.910156 2.261719 -25.027344 2.261719 -18.78125 C 2.261719 -12.539062 2.164062 -6.246094 1.964844 0 Z M 16.71875 -9.832031 L 16.71875 -27.683594 L 19.078125 -27.683594 C 22.175781 -27.683594 23.011719 -25.027344 23.011719 -18.636719 C 23.011719 -12.292969 22.519531 -9.832031 19.371094 -9.832031 Z M 16.71875 -9.832031 "/></g></g></g><g fill="#ffffff" fill-opacity="1"><g transform="translate(185.516736, 248.967114)"><g><path d="M 3.738281 0 L 24.339844 0 L 25.667969 -17.210938 C 25.863281 -19.324219 26.011719 -21.386719 26.207031 -23.503906 L 27.339844 -23.503906 C 27.582031 -19.914062 27.683594 -19.570312 27.929688 -17.210938 L 29.304688 0 L 49.859375 0 C 50.203125 -8.652344 52.121094 -28.664062 53.546875 -37.515625 L 38.941406 -37.515625 C 38.402344 -30.042969 37.859375 -21.734375 37.074219 -12.488281 L 36.089844 -12.488281 L 33.484375 -37.515625 L 20.160156 -37.515625 L 17.503906 -12.488281 L 16.472656 -12.488281 C 15.980469 -18.289062 15.144531 -29.992188 14.652344 -37.515625 L 0 -37.515625 C 1.476562 -27.386719 2.457031 -17.40625 3.738281 0 Z M 3.738281 0 "/></g></g></g><g fill="#ffffff" fill-opacity="1"><g transform="translate(239.062171, 248.967114)"><g><path d="M 19.765625 0.6875 C 32.207031 0.6875 37.761719 -4.820312 37.761719 -18.535156 C 37.761719 -32.597656 32.5 -38.203125 19.324219 -38.203125 C 6.589844 -38.203125 1.476562 -32.648438 1.476562 -18.832031 C 1.476562 -4.867188 6.292969 0.6875 19.765625 0.6875 Z M 19.71875 -9.734375 C 17.355469 -9.734375 16.078125 -13.375 16.078125 -18.929688 C 16.078125 -22.46875 16.226562 -24.832031 16.71875 -26.699219 C 17.503906 -27.386719 18.683594 -27.730469 19.519531 -27.730469 C 21.832031 -27.730469 23.160156 -24.042969 23.160156 -18.636719 C 23.160156 -15.144531 22.914062 -12.488281 22.371094 -10.523438 C 21.78125 -9.933594 20.453125 -9.734375 19.71875 -9.734375 Z M 19.71875 -9.734375 "/></g></g></g><g fill="#ffffff" fill-opacity="1"><g transform="translate(278.299319, 248.967114)"><g><path d="M 1.964844 0 L 16.765625 0 C 16.765625 -0.738281 16.667969 -10.472656 16.765625 -12.195312 L 20.652344 -12.195312 C 23.601562 -12.195312 23.796875 -11.210938 23.796875 -8.554688 C 23.796875 -5.210938 23.996094 -2.753906 24.339844 0 L 40.320312 0 C 39.679688 -1.820312 38.84375 -7.03125 38.84375 -8.898438 C 38.84375 -13.765625 35.5 -16.226562 25.667969 -16.226562 L 25.667969 -17.109375 C 34.910156 -17.109375 38.84375 -19.472656 38.84375 -27.4375 C 38.84375 -35.695312 32.746094 -37.515625 22.078125 -37.515625 L 1.964844 -37.515625 C 2.113281 -31.222656 2.210938 -25.027344 2.210938 -18.734375 C 2.210938 -12.488281 2.113281 -6.292969 1.964844 0 Z M 16.570312 -20.257812 L 16.570312 -27.632812 L 19.371094 -27.632812 C 21.832031 -27.632812 23.550781 -26.894531 23.550781 -24.042969 C 23.550781 -21.09375 21.734375 -20.257812 19.570312 -20.257812 Z M 16.570312 -20.257812 "/></g></g></g><g fill="#ffffff" fill-opacity="1"><g transform="translate(320.093269, 248.967114)"><g><path d="M 33.484375 -13.964844 C 32.15625 -17.160156 31.371094 -17.554688 22.960938 -18.4375 L 22.960938 -19.175781 C 31.074219 -20.160156 32.304688 -20.554688 33.484375 -23.550781 L 39.039062 -37.515625 L 23.503906 -37.515625 L 17.75 -21.683594 L 16.375 -21.683594 L 16.765625 -37.515625 L 1.964844 -37.515625 C 2.113281 -31.171875 2.210938 -24.289062 2.210938 -18.734375 C 2.210938 -13.128906 2.113281 -6.292969 1.964844 0 L 16.765625 0 L 16.375 -15.585938 L 17.699219 -15.585938 L 23.109375 0 L 39.335938 0 Z M 33.484375 -13.964844 "/></g></g></g><g fill="#ffffff" fill-opacity="1"><g transform="translate(106.766183, 289.532257)"><g><path d="M 1.496094 0 L 7.324219 0 C 11.023438 0 12.703125 -0.972656 12.703125 -3.699219 C 12.703125 -5.847656 11.402344 -6.765625 8.460938 -6.964844 L 8.460938 -7.179688 C 11.1875 -7.398438 12.378906 -8.355469 12.378906 -10.375 C 12.378906 -13.007812 10.519531 -13.765625 7.035156 -13.765625 L 1.496094 -13.765625 C 1.550781 -11.65625 1.585938 -8.605469 1.585938 -6.855469 C 1.585938 -5.234375 1.535156 -1.570312 1.496094 0 Z M 3.429688 -7.558594 C 3.429688 -7.703125 3.429688 -7.8125 3.429688 -7.957031 L 3.429688 -12.46875 L 6.890625 -12.46875 C 9.308594 -12.46875 10.445312 -11.855469 10.445312 -9.996094 C 10.445312 -8.425781 9.492188 -7.558594 6.855469 -7.558594 Z M 3.410156 -1.425781 C 3.410156 -1.570312 3.410156 -1.730469 3.410156 -1.894531 L 3.410156 -6.550781 L 6.855469 -6.550781 C 9.597656 -6.550781 10.808594 -5.703125 10.808594 -3.988281 C 10.808594 -2.164062 9.816406 -1.425781 7.035156 -1.425781 Z M 3.410156 -1.425781 "/></g></g></g><g fill="#ffffff" fill-opacity="1"><g transform="translate(127.660462, 289.532257)"><g><path d="M 1.496094 0 L 3.464844 0 C 3.390625 -2.292969 3.390625 -4.582031 3.390625 -6.890625 C 3.390625 -9.183594 3.390625 -11.476562 3.464844 -13.765625 L 1.496094 -13.765625 C 1.535156 -11.457031 1.550781 -9.183594 1.550781 -6.875 C 1.550781 -4.582031 1.535156 -2.292969 1.496094 0 Z M 1.496094 0 "/></g></g></g><g fill="#ffffff" fill-opacity="1"><g transform="translate(140.074325, 289.532257)"><g><path d="M 7.542969 -5.992188 C 6.710938 -6.984375 6.621094 -7.054688 5.519531 -7.164062 L 5.519531 -7.363281 C 6.605469 -7.488281 6.730469 -7.542969 7.578125 -8.480469 L 12.394531 -13.765625 L 10.230469 -13.765625 L 4.761719 -7.632812 L 3.375 -7.632812 L 3.464844 -13.765625 L 1.496094 -13.765625 C 1.535156 -11.457031 1.550781 -9.113281 1.550781 -6.875 C 1.550781 -4.636719 1.535156 -2.292969 1.496094 0 L 3.464844 0 C 3.445312 -1.027344 3.390625 -5.070312 3.375 -6.855469 L 4.78125 -6.855469 L 10.734375 0 L 12.957031 0 Z M 7.542969 -5.992188 "/></g></g></g><g fill="#ffffff" fill-opacity="1"><g transform="translate(160.770113, 289.532257)"><g><path d="M 1.496094 0 L 11.441406 0 L 11.441406 -1.460938 L 3.445312 -1.460938 L 3.445312 -6.496094 L 10.824219 -6.441406 L 10.824219 -7.722656 L 3.445312 -7.667969 L 3.445312 -12.304688 L 11.296875 -12.304688 L 11.296875 -13.765625 L 1.496094 -13.765625 C 1.550781 -12.160156 1.605469 -8.789062 1.605469 -6.855469 C 1.605469 -4.996094 1.550781 -1.570312 1.496094 0 Z M 1.496094 0 "/></g></g></g><g fill="#ffffff" fill-opacity="1"><g transform="translate(180.401345, 289.532257)"><g/></g></g><g fill="#ffffff" fill-opacity="1"><g transform="translate(192.183694, 289.532257)"><g><path d="M 1.496094 0 L 3.464844 0 C 3.429688 -1.15625 3.410156 -2.796875 3.410156 -4.097656 C 3.410156 -4.566406 3.375 -5.015625 3.339844 -5.484375 L 3.5 -5.503906 C 3.71875 -5.195312 3.84375 -4.726562 4.511719 -4.726562 L 7.46875 -4.726562 C 10.683594 -4.726562 12.234375 -6.082031 12.234375 -9.273438 C 12.234375 -12.757812 10.050781 -13.765625 6.605469 -13.765625 L 1.496094 -13.765625 C 1.515625 -11.53125 1.535156 -9.238281 1.535156 -6.875 C 1.535156 -4.511719 1.515625 -2.238281 1.496094 0 Z M 3.410156 -6.007812 C 3.410156 -6.042969 3.410156 -6.117188 3.410156 -6.171875 L 3.429688 -12.394531 L 6.640625 -12.394531 C 8.984375 -12.394531 10.355469 -11.511719 10.355469 -9.167969 C 10.355469 -6.820312 8.878906 -6.007812 6.640625 -6.007812 Z M 3.410156 -6.007812 "/></g></g></g><g fill="#ffffff" fill-opacity="1"><g transform="translate(212.608847, 289.532257)"><g><path d="M 12.683594 0 C 11.277344 -3.953125 9.003906 -10.304688 7.867188 -13.765625 L 4.761719 -13.765625 C 3.664062 -10.339844 1.28125 -3.734375 -0.0351562 0 L 2.003906 0 C 2.417969 -1.191406 2.851562 -2.4375 3.285156 -3.753906 C 4.1875 -3.769531 5.179688 -3.769531 6.296875 -3.769531 C 7.019531 -3.769531 8.171875 -3.753906 9.363281 -3.753906 L 10.664062 0 Z M 3.679688 -4.960938 C 4.511719 -7.433594 5.359375 -10.105469 6.207031 -12.917969 L 6.386719 -12.917969 C 6.875 -10.933594 7.957031 -7.777344 8.929688 -4.960938 Z M 3.679688 -4.960938 "/></g></g></g><g fill="#ffffff" fill-opacity="1"><g transform="translate(232.709207, 289.532257)"><g><path d="M 1.496094 0 L 3.429688 0 C 3.429688 -1.695312 3.445312 -3.933594 3.445312 -5.738281 L 6.75 -5.738281 C 8.644531 -5.738281 9.382812 -4.871094 9.996094 -3.121094 C 10.195312 -2.292969 10.664062 -0.792969 10.878906 0 L 12.917969 0 C 12.667969 -0.738281 12.125 -2.488281 11.925781 -3.15625 C 11.3125 -5.195312 10.375 -6.027344 8.371094 -6.171875 L 8.371094 -6.386719 C 10.773438 -6.421875 12.25 -7.523438 12.25 -10.050781 C 12.25 -12.972656 10.429688 -13.765625 6.910156 -13.765625 L 1.496094 -13.765625 C 1.535156 -11.980469 1.605469 -8.734375 1.605469 -6.855469 C 1.605469 -4.960938 1.535156 -1.859375 1.496094 0 Z M 3.429688 -6.800781 C 3.429688 -7.089844 3.429688 -7.398438 3.429688 -7.6875 L 3.429688 -12.394531 L 6.65625 -12.394531 C 9.148438 -12.394531 10.304688 -11.820312 10.304688 -9.636719 C 10.304688 -7.742188 9.308594 -6.800781 6.621094 -6.800781 Z M 3.429688 -6.800781 "/></g></g></g><g fill="#ffffff" fill-opacity="1"><g transform="translate(253.820002, 289.532257)"><g><path d="M 7.542969 -5.992188 C 6.710938 -6.984375 6.621094 -7.054688 5.519531 -7.164062 L 5.519531 -7.363281 C 6.605469 -7.488281 6.730469 -7.542969 7.578125 -8.480469 L 12.394531 -13.765625 L 10.230469 -13.765625 L 4.761719 -7.632812 L 3.375 -7.632812 L 3.464844 -13.765625 L 1.496094 -13.765625 C 1.535156 -11.457031 1.550781 -9.113281 1.550781 -6.875 C 1.550781 -4.636719 1.535156 -2.292969 1.496094 0 L 3.464844 0 C 3.445312 -1.027344 3.390625 -5.070312 3.375 -6.855469 L 4.78125 -6.855469 L 10.734375 0 L 12.957031 0 Z M 7.542969 -5.992188 "/></g></g></g></svg>