<svg xmlns="http://www.w3.org/2000/svg" xmlns:xlink="http://www.w3.org/1999/xlink" width="500" zoomAndPan="magnify" viewBox="0 0 375 374.999991" height="500" preserveAspectRatio="xMidYMid meet" version="1.0"><defs><clipPath id="id1"><path d="M 30.6875 96 L 344.1875 96 L 344.1875 278.945312 L 30.6875 278.945312 Z M 30.6875 96 " clip-rule="nonzero"/></clipPath></defs><g clip-path="url(#id1)"><path fill="#191919" d="M 343.921875 96.515625 C 343.828125 96.347656 343.660156 96.140625 343.410156 96.140625 L 270.585938 96.003906 C 270.519531 96.003906 270.460938 96.015625 270.402344 96.050781 L 270.371094 96.070312 C 270.226562 96.152344 270.089844 96.324219 270.003906 96.539062 L 251.199219 145.683594 L 232.355469 197.09375 L 230.664062 192.503906 L 212.617188 143.277344 C 212.34375 142.519531 212.296875 141.691406 212.484375 140.921875 L 160.195312 140.921875 L 206.339844 261.550781 L 212.78125 278.378906 C 212.90625 278.703125 213.132812 278.914062 213.359375 278.914062 L 252.148438 278.914062 C 252.378906 278.914062 252.605469 278.703125 252.730469 278.378906 L 305.515625 140.410156 C 305.96875 139.222656 306.945312 138.460938 308.003906 138.460938 L 328.152344 138.425781 C 328.378906 138.425781 328.609375 138.214844 328.730469 137.890625 L 344 97.773438 C 344.183594 97.28125 344.082031 96.804688 343.921875 96.515625 Z M 104.296875 96.003906 C 104.523438 96.003906 104.753906 96.214844 104.878906 96.535156 L 168.527344 262.917969 L 174.027344 277.289062 C 174.214844 277.773438 174.109375 278.253906 173.953125 278.539062 C 173.859375 278.707031 173.695312 278.914062 173.445312 278.914062 L 122.730469 278.914062 C 122.5 278.914062 122.273438 278.703125 122.148438 278.378906 L 69.359375 140.40625 C 68.90625 139.226562 67.929688 138.460938 66.871094 138.460938 L 46.726562 138.425781 C 46.496094 138.425781 46.269531 138.214844 46.144531 137.886719 L 30.878906 97.773438 C 30.695312 97.28125 30.796875 96.800781 30.953125 96.515625 C 31.050781 96.34375 31.214844 96.140625 31.464844 96.140625 L 53.121094 96.175781 L 53.382812 96.050781 C 53.449219 96.019531 53.511719 96.003906 53.574219 96.003906 L 104.296875 96.003906 " fill-opacity="1" fill-rule="nonzero"/></g></svg>