<svg xmlns="http://www.w3.org/2000/svg" xmlns:xlink="http://www.w3.org/1999/xlink" width="500" zoomAndPan="magnify" viewBox="0 0 375 374.999991" height="500" preserveAspectRatio="xMidYMid meet" version="1.0"><defs><g/><clipPath id="id1"><path d="M 90.699219 74.242188 L 284.199219 74.242188 L 284.199219 187.492188 L 90.699219 187.492188 Z M 90.699219 74.242188 " clip-rule="nonzero"/></clipPath></defs><g clip-path="url(#id1)"><path fill="#191919" d="M 284.035156 74.597656 C 283.976562 74.492188 283.871094 74.367188 283.71875 74.367188 L 238.769531 74.28125 C 238.726562 74.28125 238.691406 74.289062 238.65625 74.308594 L 238.636719 74.320312 C 238.546875 74.371094 238.460938 74.480469 238.410156 74.609375 L 226.800781 105.023438 L 215.171875 136.839844 L 214.128906 134 L 202.992188 103.535156 C 202.820312 103.066406 202.792969 102.554688 202.90625 102.078125 L 170.632812 102.078125 L 199.117188 176.730469 L 203.089844 187.144531 C 203.167969 187.34375 203.308594 187.472656 203.449219 187.472656 L 227.390625 187.472656 C 227.53125 187.472656 227.671875 187.34375 227.75 187.144531 L 260.328125 101.761719 C 260.609375 101.027344 261.210938 100.554688 261.863281 100.554688 L 274.300781 100.53125 C 274.441406 100.53125 274.582031 100.402344 274.65625 100.203125 L 284.082031 75.375 C 284.195312 75.070312 284.132812 74.773438 284.035156 74.597656 Z M 136.128906 74.28125 C 136.273438 74.28125 136.414062 74.410156 136.488281 74.609375 L 175.777344 177.574219 L 179.171875 186.46875 C 179.285156 186.769531 179.222656 187.066406 179.125 187.242188 C 179.066406 187.347656 178.964844 187.472656 178.8125 187.472656 L 147.507812 187.472656 C 147.367188 187.472656 147.226562 187.34375 147.148438 187.144531 L 114.566406 101.757812 C 114.289062 101.03125 113.683594 100.554688 113.03125 100.554688 L 100.597656 100.53125 C 100.457031 100.53125 100.316406 100.402344 100.238281 100.199219 L 90.816406 75.375 C 90.703125 75.070312 90.765625 74.773438 90.863281 74.597656 C 90.921875 74.492188 91.023438 74.367188 91.175781 74.367188 L 104.546875 74.386719 L 104.707031 74.308594 C 104.746094 74.289062 104.785156 74.28125 104.824219 74.28125 L 136.128906 74.28125 " fill-opacity="1" fill-rule="nonzero"/></g><g fill="#191919" fill-opacity="1"><g transform="translate(14.19141, 248.95034)"><g><path d="M 3.738281 0 L 24.335938 0 L 25.664062 -17.207031 C 25.859375 -19.320312 26.007812 -21.386719 26.203125 -23.5 L 27.335938 -23.5 C 27.582031 -19.910156 27.679688 -19.566406 27.925781 -17.207031 L 29.300781 0 L 49.851562 0 C 50.195312 -8.652344 52.113281 -28.660156 53.539062 -37.511719 L 38.9375 -37.511719 C 38.394531 -30.039062 37.855469 -21.730469 37.070312 -12.488281 L 36.085938 -12.488281 L 33.480469 -37.511719 L 20.15625 -37.511719 L 17.5 -12.488281 L 16.46875 -12.488281 C 15.976562 -18.289062 15.140625 -29.988281 14.652344 -37.511719 L 0 -37.511719 C 1.476562 -27.382812 2.457031 -17.402344 3.738281 0 Z M 3.738281 0 "/></g></g></g><g fill="#191919" fill-opacity="1"><g transform="translate(67.726913, 248.95034)"><g><path d="M 19.761719 0.6875 C 32.203125 0.6875 37.757812 -4.816406 37.757812 -18.535156 C 37.757812 -32.59375 32.496094 -38.199219 19.320312 -38.199219 C 6.585938 -38.199219 1.476562 -32.644531 1.476562 -18.828125 C 1.476562 -4.867188 6.292969 0.6875 19.761719 0.6875 Z M 19.714844 -9.734375 C 17.355469 -9.734375 16.074219 -13.371094 16.074219 -18.925781 C 16.074219 -22.46875 16.222656 -24.828125 16.714844 -26.695312 C 17.5 -27.382812 18.683594 -27.726562 19.515625 -27.726562 C 21.828125 -27.726562 23.15625 -24.039062 23.15625 -18.632812 C 23.15625 -15.140625 22.910156 -12.488281 22.367188 -10.519531 C 21.777344 -9.929688 20.453125 -9.734375 19.714844 -9.734375 Z M 19.714844 -9.734375 "/></g></g></g><g fill="#191919" fill-opacity="1"><g transform="translate(106.956788, 248.95034)"><g><path d="M 19.761719 0.6875 C 32.203125 0.6875 37.757812 -4.816406 37.757812 -18.535156 C 37.757812 -32.59375 32.496094 -38.199219 19.320312 -38.199219 C 6.585938 -38.199219 1.476562 -32.644531 1.476562 -18.828125 C 1.476562 -4.867188 6.292969 0.6875 19.761719 0.6875 Z M 19.714844 -9.734375 C 17.355469 -9.734375 16.074219 -13.371094 16.074219 -18.925781 C 16.074219 -22.46875 16.222656 -24.828125 16.714844 -26.695312 C 17.5 -27.382812 18.683594 -27.726562 19.515625 -27.726562 C 21.828125 -27.726562 23.15625 -24.039062 23.15625 -18.632812 C 23.15625 -15.140625 22.910156 -12.488281 22.367188 -10.519531 C 21.777344 -9.929688 20.453125 -9.734375 19.714844 -9.734375 Z M 19.714844 -9.734375 "/></g></g></g><g fill="#191919" fill-opacity="1"><g transform="translate(146.186663, 248.95034)"><g><path d="M 1.964844 0 L 20.746094 0 C 33.183594 0 37.855469 -6.144531 37.855469 -18.78125 C 37.855469 -31.167969 32.398438 -37.511719 19.617188 -37.511719 L 1.964844 -37.511719 C 2.164062 -31.90625 2.261719 -25.023438 2.261719 -18.78125 C 2.261719 -12.535156 2.164062 -6.242188 1.964844 0 Z M 16.714844 -9.832031 L 16.714844 -27.679688 L 19.074219 -27.679688 C 22.171875 -27.679688 23.007812 -25.023438 23.007812 -18.632812 C 23.007812 -12.289062 22.515625 -9.832031 19.371094 -9.832031 Z M 16.714844 -9.832031 "/></g></g></g><g fill="#191919" fill-opacity="1"><g transform="translate(185.514854, 248.95034)"><g><path d="M 3.738281 0 L 24.335938 0 L 25.664062 -17.207031 C 25.859375 -19.320312 26.007812 -21.386719 26.203125 -23.5 L 27.335938 -23.5 C 27.582031 -19.910156 27.679688 -19.566406 27.925781 -17.207031 L 29.300781 0 L 49.851562 0 C 50.195312 -8.652344 52.113281 -28.660156 53.539062 -37.511719 L 38.9375 -37.511719 C 38.394531 -30.039062 37.855469 -21.730469 37.070312 -12.488281 L 36.085938 -12.488281 L 33.480469 -37.511719 L 20.15625 -37.511719 L 17.5 -12.488281 L 16.46875 -12.488281 C 15.976562 -18.289062 15.140625 -29.988281 14.652344 -37.511719 L 0 -37.511719 C 1.476562 -27.382812 2.457031 -17.402344 3.738281 0 Z M 3.738281 0 "/></g></g></g><g fill="#191919" fill-opacity="1"><g transform="translate(239.050358, 248.95034)"><g><path d="M 19.761719 0.6875 C 32.203125 0.6875 37.757812 -4.816406 37.757812 -18.535156 C 37.757812 -32.59375 32.496094 -38.199219 19.320312 -38.199219 C 6.585938 -38.199219 1.476562 -32.644531 1.476562 -18.828125 C 1.476562 -4.867188 6.292969 0.6875 19.761719 0.6875 Z M 19.714844 -9.734375 C 17.355469 -9.734375 16.074219 -13.371094 16.074219 -18.925781 C 16.074219 -22.46875 16.222656 -24.828125 16.714844 -26.695312 C 17.5 -27.382812 18.683594 -27.726562 19.515625 -27.726562 C 21.828125 -27.726562 23.15625 -24.039062 23.15625 -18.632812 C 23.15625 -15.140625 22.910156 -12.488281 22.367188 -10.519531 C 21.777344 -9.929688 20.453125 -9.734375 19.714844 -9.734375 Z M 19.714844 -9.734375 "/></g></g></g><g fill="#191919" fill-opacity="1"><g transform="translate(278.280244, 248.95034)"><g><path d="M 1.964844 0 L 16.765625 0 C 16.765625 -0.738281 16.667969 -10.472656 16.765625 -12.191406 L 20.648438 -12.191406 C 23.597656 -12.191406 23.792969 -11.210938 23.792969 -8.554688 C 23.792969 -5.210938 23.992188 -2.753906 24.335938 0 L 40.3125 0 C 39.675781 -1.820312 38.839844 -7.03125 38.839844 -8.898438 C 38.839844 -13.765625 35.496094 -16.222656 25.664062 -16.222656 L 25.664062 -17.109375 C 34.90625 -17.109375 38.839844 -19.46875 38.839844 -27.433594 C 38.839844 -35.691406 32.742188 -37.511719 22.074219 -37.511719 L 1.964844 -37.511719 C 2.113281 -31.21875 2.210938 -25.023438 2.210938 -18.730469 C 2.210938 -12.488281 2.113281 -6.292969 1.964844 0 Z M 16.566406 -20.253906 L 16.566406 -27.628906 L 19.371094 -27.628906 C 21.828125 -27.628906 23.550781 -26.890625 23.550781 -24.039062 C 23.550781 -21.089844 21.730469 -20.253906 19.566406 -20.253906 Z M 16.566406 -20.253906 "/></g></g></g><g fill="#191919" fill-opacity="1"><g transform="translate(320.066443, 248.95034)"><g><path d="M 33.480469 -13.960938 C 32.152344 -17.15625 31.367188 -17.550781 22.957031 -18.4375 L 22.957031 -19.171875 C 31.070312 -20.15625 32.300781 -20.550781 33.480469 -23.550781 L 39.035156 -37.511719 L 23.5 -37.511719 L 17.746094 -21.679688 L 16.371094 -21.679688 L 16.765625 -37.511719 L 1.964844 -37.511719 C 2.113281 -31.167969 2.210938 -24.285156 2.210938 -18.730469 C 2.210938 -13.125 2.113281 -6.292969 1.964844 0 L 16.765625 0 L 16.371094 -15.585938 L 17.699219 -15.585938 L 23.105469 0 L 39.328125 0 Z M 33.480469 -13.960938 "/></g></g></g><g fill="#191919" fill-opacity="1"><g transform="translate(106.792371, 289.111152)"><g><path d="M 1.496094 0 L 7.324219 0 C 11.019531 0 12.699219 -0.972656 12.699219 -3.699219 C 12.699219 -5.84375 11.398438 -6.765625 8.460938 -6.960938 L 8.460938 -7.179688 C 11.183594 -7.394531 12.375 -8.351562 12.375 -10.371094 C 12.375 -13.003906 10.515625 -13.761719 7.035156 -13.761719 L 1.496094 -13.761719 C 1.550781 -11.652344 1.585938 -8.605469 1.585938 -6.855469 C 1.585938 -5.230469 1.53125 -1.570312 1.496094 0 Z M 3.425781 -7.558594 C 3.425781 -7.703125 3.425781 -7.808594 3.425781 -7.953125 L 3.425781 -12.464844 L 6.890625 -12.464844 C 9.308594 -12.464844 10.445312 -11.851562 10.445312 -9.992188 C 10.445312 -8.421875 9.488281 -7.558594 6.855469 -7.558594 Z M 3.410156 -1.425781 C 3.410156 -1.570312 3.410156 -1.730469 3.410156 -1.894531 L 3.410156 -6.546875 L 6.855469 -6.546875 C 9.597656 -6.546875 10.804688 -5.699219 10.804688 -3.984375 C 10.804688 -2.164062 9.8125 -1.425781 7.035156 -1.425781 Z M 3.410156 -1.425781 "/></g></g></g><g fill="#191919" fill-opacity="1"><g transform="translate(127.680504, 289.111152)"><g><path d="M 1.496094 0 L 3.464844 0 C 3.390625 -2.289062 3.390625 -4.582031 3.390625 -6.890625 C 3.390625 -9.179688 3.390625 -11.472656 3.464844 -13.761719 L 1.496094 -13.761719 C 1.53125 -11.453125 1.550781 -9.179688 1.550781 -6.871094 C 1.550781 -4.582031 1.53125 -2.289062 1.496094 0 Z M 1.496094 0 "/></g></g></g><g fill="#191919" fill-opacity="1"><g transform="translate(140.092112, 289.111152)"><g><path d="M 7.539062 -5.988281 C 6.710938 -6.980469 6.621094 -7.050781 5.519531 -7.160156 L 5.519531 -7.359375 C 6.601562 -7.484375 6.726562 -7.539062 7.574219 -8.476562 L 12.390625 -13.761719 L 10.226562 -13.761719 L 4.761719 -7.628906 L 3.371094 -7.628906 L 3.464844 -13.761719 L 1.496094 -13.761719 C 1.53125 -11.453125 1.550781 -9.109375 1.550781 -6.871094 C 1.550781 -4.636719 1.53125 -2.289062 1.496094 0 L 3.464844 0 C 3.445312 -1.027344 3.390625 -5.070312 3.371094 -6.855469 L 4.78125 -6.855469 L 10.730469 0 L 12.949219 0 Z M 7.539062 -5.988281 "/></g></g></g><g fill="#191919" fill-opacity="1"><g transform="translate(160.781862, 289.111152)"><g><path d="M 1.496094 0 L 11.4375 0 L 11.4375 -1.460938 L 3.445312 -1.460938 L 3.445312 -6.492188 L 10.824219 -6.4375 L 10.824219 -7.71875 L 3.445312 -7.664062 L 3.445312 -12.300781 L 11.292969 -12.300781 L 11.292969 -13.761719 L 1.496094 -13.761719 C 1.550781 -12.15625 1.605469 -8.785156 1.605469 -6.855469 C 1.605469 -4.996094 1.550781 -1.570312 1.496094 0 Z M 1.496094 0 "/></g></g></g><g fill="#191919" fill-opacity="1"><g transform="translate(180.407539, 289.111152)"><g/></g></g><g fill="#191919" fill-opacity="1"><g transform="translate(192.187915, 289.111152)"><g><path d="M 1.496094 0 L 3.464844 0 C 3.425781 -1.15625 3.410156 -2.796875 3.410156 -4.09375 C 3.410156 -4.5625 3.371094 -5.015625 3.335938 -5.484375 L 3.5 -5.5 C 3.714844 -5.195312 3.84375 -4.726562 4.507812 -4.726562 L 7.46875 -4.726562 C 10.679688 -4.726562 12.230469 -6.078125 12.230469 -9.269531 C 12.230469 -12.753906 10.046875 -13.761719 6.601562 -13.761719 L 1.496094 -13.761719 C 1.515625 -11.527344 1.53125 -9.234375 1.53125 -6.871094 C 1.53125 -4.507812 1.515625 -2.238281 1.496094 0 Z M 3.410156 -6.007812 C 3.410156 -6.042969 3.410156 -6.113281 3.410156 -6.167969 L 3.425781 -12.390625 L 6.636719 -12.390625 C 8.984375 -12.390625 10.355469 -11.507812 10.355469 -9.164062 C 10.355469 -6.816406 8.875 -6.007812 6.636719 -6.007812 Z M 3.410156 -6.007812 "/></g></g></g><g fill="#191919" fill-opacity="1"><g transform="translate(212.607138, 289.111152)"><g><path d="M 12.679688 0 C 11.273438 -3.949219 9 -10.300781 7.863281 -13.761719 L 4.761719 -13.761719 C 3.660156 -10.335938 1.28125 -3.734375 -0.0351562 0 L 2.003906 0 C 2.417969 -1.191406 2.851562 -2.433594 3.28125 -3.75 C 4.183594 -3.769531 5.175781 -3.769531 6.296875 -3.769531 C 7.015625 -3.769531 8.171875 -3.75 9.363281 -3.75 L 10.660156 0 Z M 3.679688 -4.960938 C 4.507812 -7.429688 5.355469 -10.101562 6.203125 -12.914062 L 6.386719 -12.914062 C 6.871094 -10.929688 7.953125 -7.773438 8.929688 -4.960938 Z M 3.679688 -4.960938 "/></g></g></g><g fill="#191919" fill-opacity="1"><g transform="translate(232.701726, 289.111152)"><g><path d="M 1.496094 0 L 3.425781 0 C 3.425781 -1.695312 3.445312 -3.933594 3.445312 -5.734375 L 6.746094 -5.734375 C 8.640625 -5.734375 9.378906 -4.871094 9.992188 -3.121094 C 10.191406 -2.289062 10.660156 -0.792969 10.875 0 L 12.914062 0 C 12.664062 -0.738281 12.121094 -2.488281 11.921875 -3.15625 C 11.308594 -5.195312 10.371094 -6.023438 8.371094 -6.167969 L 8.371094 -6.386719 C 10.769531 -6.421875 12.246094 -7.523438 12.246094 -10.046875 C 12.246094 -12.96875 10.425781 -13.761719 6.910156 -13.761719 L 1.496094 -13.761719 C 1.53125 -11.976562 1.605469 -8.730469 1.605469 -6.855469 C 1.605469 -4.960938 1.53125 -1.859375 1.496094 0 Z M 3.425781 -6.800781 C 3.425781 -7.089844 3.425781 -7.394531 3.425781 -7.683594 L 3.425781 -12.390625 L 6.65625 -12.390625 C 9.144531 -12.390625 10.300781 -11.816406 10.300781 -9.632812 C 10.300781 -7.738281 9.308594 -6.800781 6.621094 -6.800781 Z M 3.425781 -6.800781 "/></g></g></g><g fill="#191919" fill-opacity="1"><g transform="translate(253.806289, 289.111152)"><g><path d="M 7.539062 -5.988281 C 6.710938 -6.980469 6.621094 -7.050781 5.519531 -7.160156 L 5.519531 -7.359375 C 6.601562 -7.484375 6.726562 -7.539062 7.574219 -8.476562 L 12.390625 -13.761719 L 10.226562 -13.761719 L 4.761719 -7.628906 L 3.371094 -7.628906 L 3.464844 -13.761719 L 1.496094 -13.761719 C 1.53125 -11.453125 1.550781 -9.109375 1.550781 -6.871094 C 1.550781 -4.636719 1.53125 -2.289062 1.496094 0 L 3.464844 0 C 3.445312 -1.027344 3.390625 -5.070312 3.371094 -6.855469 L 4.78125 -6.855469 L 10.730469 0 L 12.949219 0 Z M 7.539062 -5.988281 "/></g></g></g></svg>