<svg xmlns="http://www.w3.org/2000/svg" xmlns:xlink="http://www.w3.org/1999/xlink" width="500" zoomAndPan="magnify" viewBox="0 0 375 374.999991" height="500" preserveAspectRatio="xMidYMid meet" version="1.0"><defs><g/><clipPath id="id1"><path d="M 90.699219 74.242188 L 284.199219 74.242188 L 284.199219 187.492188 L 90.699219 187.492188 Z M 90.699219 74.242188 " clip-rule="nonzero"/></clipPath></defs><g clip-path="url(#id1)"><path fill="#eba13f" d="M 284.035156 74.597656 C 283.976562 74.492188 283.871094 74.367188 283.71875 74.367188 L 238.769531 74.28125 C 238.726562 74.28125 238.691406 74.289062 238.65625 74.308594 L 238.636719 74.320312 C 238.546875 74.371094 238.460938 74.480469 238.410156 74.609375 L 226.800781 105.023438 L 215.171875 136.839844 L 214.128906 134 L 202.992188 103.535156 C 202.820312 103.066406 202.792969 102.554688 202.90625 102.078125 L 170.632812 102.078125 L 199.117188 176.730469 L 203.089844 187.144531 C 203.167969 187.34375 203.308594 187.472656 203.449219 187.472656 L 227.390625 187.472656 C 227.53125 187.472656 227.671875 187.34375 227.75 187.144531 L 260.328125 101.761719 C 260.609375 101.027344 261.210938 100.554688 261.863281 100.554688 L 274.300781 100.53125 C 274.441406 100.53125 274.582031 100.402344 274.65625 100.203125 L 284.082031 75.375 C 284.195312 75.070312 284.132812 74.773438 284.035156 74.597656 Z M 136.128906 74.28125 C 136.273438 74.28125 136.414062 74.410156 136.488281 74.609375 L 175.777344 177.574219 L 179.171875 186.46875 C 179.285156 186.769531 179.222656 187.066406 179.125 187.242188 C 179.066406 187.347656 178.964844 187.472656 178.8125 187.472656 L 147.507812 187.472656 C 147.367188 187.472656 147.226562 187.34375 147.148438 187.144531 L 114.566406 101.757812 C 114.289062 101.03125 113.683594 100.554688 113.03125 100.554688 L 100.597656 100.53125 C 100.457031 100.53125 100.316406 100.402344 100.238281 100.199219 L 90.816406 75.375 C 90.703125 75.070312 90.765625 74.773438 90.863281 74.597656 C 90.921875 74.492188 91.023438 74.367188 91.175781 74.367188 L 104.546875 74.386719 L 104.707031 74.308594 C 104.746094 74.289062 104.785156 74.28125 104.824219 74.28125 L 136.128906 74.28125 " fill-opacity="1" fill-rule="nonzero"/></g><g fill="#d67a00" fill-opacity="1"><g transform="translate(14.19141, 248.95034)"><g><path d="M 3.738281 0 L 24.335938 0 L 25.664062 -17.207031 C 25.859375 -19.320312 26.007812 -21.386719 26.203125 -23.5 L 27.335938 -23.5 C 27.582031 -19.910156 27.679688 -19.566406 27.925781 -17.207031 L 29.300781 0 L 49.851562 0 C 50.195312 -8.652344 52.113281 -28.660156 53.539062 -37.511719 L 38.9375 -37.511719 C 38.394531 -30.039062 37.855469 -21.730469 37.070312 -12.488281 L 36.085938 -12.488281 L 33.480469 -37.511719 L 20.15625 -37.511719 L 17.5 -12.488281 L 16.46875 -12.488281 C 15.976562 -18.289062 15.140625 -29.988281 14.652344 -37.511719 L 0 -37.511719 C 1.476562 -27.382812 2.457031 -17.402344 3.738281 0 Z M 3.738281 0 "/></g></g></g><g fill="#d67a00" fill-opacity="1"><g transform="translate(67.726913, 248.95034)"><g><path d="M 19.761719 0.6875 C 32.203125 0.6875 37.757812 -4.816406 37.757812 -18.535156 C 37.757812 -32.59375 32.496094 -38.199219 19.320312 -38.199219 C 6.585938 -38.199219 1.476562 -32.644531 1.476562 -18.828125 C 1.476562 -4.867188 6.292969 0.6875 19.761719 0.6875 Z M 19.714844 -9.734375 C 17.355469 -9.734375 16.074219 -13.371094 16.074219 -18.925781 C 16.074219 -22.46875 16.222656 -24.828125 16.714844 -26.695312 C 17.5 -27.382812 18.683594 -27.726562 19.515625 -27.726562 C 21.828125 -27.726562 23.15625 -24.039062 23.15625 -18.632812 C 23.15625 -15.140625 22.910156 -12.488281 22.367188 -10.519531 C 21.777344 -9.929688 20.453125 -9.734375 19.714844 -9.734375 Z M 19.714844 -9.734375 "/></g></g></g><g fill="#d67a00" fill-opacity="1"><g transform="translate(106.956788, 248.95034)"><g><path d="M 19.761719 0.6875 C 32.203125 0.6875 37.757812 -4.816406 37.757812 -18.535156 C 37.757812 -32.59375 32.496094 -38.199219 19.320312 -38.199219 C 6.585938 -38.199219 1.476562 -32.644531 1.476562 -18.828125 C 1.476562 -4.867188 6.292969 0.6875 19.761719 0.6875 Z M 19.714844 -9.734375 C 17.355469 -9.734375 16.074219 -13.371094 16.074219 -18.925781 C 16.074219 -22.46875 16.222656 -24.828125 16.714844 -26.695312 C 17.5 -27.382812 18.683594 -27.726562 19.515625 -27.726562 C 21.828125 -27.726562 23.15625 -24.039062 23.15625 -18.632812 C 23.15625 -15.140625 22.910156 -12.488281 22.367188 -10.519531 C 21.777344 -9.929688 20.453125 -9.734375 19.714844 -9.734375 Z M 19.714844 -9.734375 "/></g></g></g><g fill="#d67a00" fill-opacity="1"><g transform="translate(146.186663, 248.95034)"><g><path d="M 1.964844 0 L 20.746094 0 C 33.183594 0 37.855469 -6.144531 37.855469 -18.78125 C 37.855469 -31.167969 32.398438 -37.511719 19.617188 -37.511719 L 1.964844 -37.511719 C 2.164062 -31.90625 2.261719 -25.023438 2.261719 -18.78125 C 2.261719 -12.535156 2.164062 -6.242188 1.964844 0 Z M 16.714844 -9.832031 L 16.714844 -27.679688 L 19.074219 -27.679688 C 22.171875 -27.679688 23.007812 -25.023438 23.007812 -18.632812 C 23.007812 -12.289062 22.515625 -9.832031 19.371094 -9.832031 Z M 16.714844 -9.832031 "/></g></g></g><g fill="#d67a00" fill-opacity="1"><g transform="translate(185.514854, 248.95034)"><g><path d="M 3.738281 0 L 24.335938 0 L 25.664062 -17.207031 C 25.859375 -19.320312 26.007812 -21.386719 26.203125 -23.5 L 27.335938 -23.5 C 27.582031 -19.910156 27.679688 -19.566406 27.925781 -17.207031 L 29.300781 0 L 49.851562 0 C 50.195312 -8.652344 52.113281 -28.660156 53.539062 -37.511719 L 38.9375 -37.511719 C 38.394531 -30.039062 37.855469 -21.730469 37.070312 -12.488281 L 36.085938 -12.488281 L 33.480469 -37.511719 L 20.15625 -37.511719 L 17.5 -12.488281 L 16.46875 -12.488281 C 15.976562 -18.289062 15.140625 -29.988281 14.652344 -37.511719 L 0 -37.511719 C 1.476562 -27.382812 2.457031 -17.402344 3.738281 0 Z M 3.738281 0 "/></g></g></g><g fill="#d67a00" fill-opacity="1"><g transform="translate(239.050358, 248.95034)"><g><path d="M 19.761719 0.6875 C 32.203125 0.6875 37.757812 -4.816406 37.757812 -18.535156 C 37.757812 -32.59375 32.496094 -38.199219 19.320312 -38.199219 C 6.585938 -38.199219 1.476562 -32.644531 1.476562 -18.828125 C 1.476562 -4.867188 6.292969 0.6875 19.761719 0.6875 Z M 19.714844 -9.734375 C 17.355469 -9.734375 16.074219 -13.371094 16.074219 -18.925781 C 16.074219 -22.46875 16.222656 -24.828125 16.714844 -26.695312 C 17.5 -27.382812 18.683594 -27.726562 19.515625 -27.726562 C 21.828125 -27.726562 23.15625 -24.039062 23.15625 -18.632812 C 23.15625 -15.140625 22.910156 -12.488281 22.367188 -10.519531 C 21.777344 -9.929688 20.453125 -9.734375 19.714844 -9.734375 Z M 19.714844 -9.734375 "/></g></g></g><g fill="#d67a00" fill-opacity="1"><g transform="translate(278.280244, 248.95034)"><g><path d="M 1.964844 0 L 16.765625 0 C 16.765625 -0.738281 16.667969 -10.472656 16.765625 -12.191406 L 20.648438 -12.191406 C 23.597656 -12.191406 23.792969 -11.210938 23.792969 -8.554688 C 23.792969 -5.210938 23.992188 -2.753906 24.335938 0 L 40.3125 0 C 39.675781 -1.820312 38.839844 -7.03125 38.839844 -8.898438 C 38.839844 -13.765625 35.496094 -16.222656 25.664062 -16.222656 L 25.664062 -17.109375 C 34.90625 -17.109375 38.839844 -19.46875 38.839844 -27.433594 C 38.839844 -35.691406 32.742188 -37.511719 22.074219 -37.511719 L 1.964844 -37.511719 C 2.113281 -31.21875 2.210938 -25.023438 2.210938 -18.730469 C 2.210938 -12.488281 2.113281 -6.292969 1.964844 0 Z M 16.566406 -20.253906 L 16.566406 -27.628906 L 19.371094 -27.628906 C 21.828125 -27.628906 23.550781 -26.890625 23.550781 -24.039062 C 23.550781 -21.089844 21.730469 -20.253906 19.566406 -20.253906 Z M 16.566406 -20.253906 "/></g></g></g><g fill="#d67a00" fill-opacity="1"><g transform="translate(320.066443, 248.95034)"><g><path d="M 33.480469 -13.960938 C 32.152344 -17.15625 31.367188 -17.550781 22.957031 -18.4375 L 22.957031 -19.171875 C 31.070312 -20.15625 32.300781 -20.550781 33.480469 -23.550781 L 39.035156 -37.511719 L 23.5 -37.511719 L 17.746094 -21.679688 L 16.371094 -21.679688 L 16.765625 -37.511719 L 1.964844 -37.511719 C 2.113281 -31.167969 2.210938 -24.285156 2.210938 -18.730469 C 2.210938 -13.125 2.113281 -6.292969 1.964844 0 L 16.765625 0 L 16.371094 -15.585938 L 17.699219 -15.585938 L 23.105469 0 L 39.328125 0 Z M 33.480469 -13.960938 "/></g></g></g><g fill="#ffffff" fill-opacity="1"><g transform="translate(89.032414, 293.211163)"><g><path d="M 1.828125 0 L 8.949219 0 C 13.46875 0 15.519531 -1.191406 15.519531 -4.519531 C 15.519531 -7.140625 13.929688 -8.265625 10.339844 -8.507812 L 10.339844 -8.773438 C 13.667969 -9.039062 15.121094 -10.207031 15.121094 -12.675781 C 15.121094 -15.894531 12.851562 -16.820312 8.597656 -16.820312 L 1.828125 -16.820312 C 1.894531 -14.238281 1.941406 -10.515625 1.941406 -8.375 C 1.941406 -6.390625 1.875 -1.917969 1.828125 0 Z M 4.1875 -9.234375 C 4.1875 -9.414062 4.1875 -9.542969 4.1875 -9.722656 L 4.1875 -15.230469 L 8.421875 -15.230469 C 11.375 -15.230469 12.761719 -14.480469 12.761719 -12.210938 C 12.761719 -10.292969 11.59375 -9.234375 8.375 -9.234375 Z M 4.167969 -1.742188 C 4.167969 -1.917969 4.167969 -2.117188 4.167969 -2.316406 L 4.167969 -8 L 8.375 -8 C 11.726562 -8 13.203125 -6.964844 13.203125 -4.871094 C 13.203125 -2.644531 11.992188 -1.742188 8.597656 -1.742188 Z M 4.167969 -1.742188 "/></g></g></g><g fill="#ffffff" fill-opacity="1"><g transform="translate(114.549627, 293.211163)"><g><path d="M 1.828125 0 L 4.230469 0 C 4.144531 -2.800781 4.144531 -5.597656 4.144531 -8.421875 C 4.144531 -11.21875 4.144531 -14.019531 4.230469 -16.820312 L 1.828125 -16.820312 C 1.875 -13.996094 1.894531 -11.21875 1.894531 -8.398438 C 1.894531 -5.597656 1.875 -2.800781 1.828125 0 Z M 1.828125 0 "/></g></g></g><g fill="#ffffff" fill-opacity="1"><g transform="translate(129.712123, 293.211163)"><g><path d="M 9.214844 -7.316406 C 8.199219 -8.53125 8.089844 -8.617188 6.746094 -8.75 L 6.746094 -8.992188 C 8.066406 -9.148438 8.222656 -9.214844 9.257812 -10.359375 L 15.144531 -16.820312 L 12.5 -16.820312 L 5.820312 -9.324219 L 4.121094 -9.324219 L 4.230469 -16.820312 L 1.828125 -16.820312 C 1.875 -13.996094 1.894531 -11.132812 1.894531 -8.398438 C 1.894531 -5.664062 1.875 -2.800781 1.828125 0 L 4.230469 0 C 4.210938 -1.257812 4.144531 -6.195312 4.121094 -8.375 L 5.839844 -8.375 L 13.117188 0 L 15.828125 0 Z M 9.214844 -7.316406 "/></g></g></g><g fill="#ffffff" fill-opacity="1"><g transform="translate(154.986999, 293.211163)"><g><path d="M 1.828125 0 L 13.976562 0 L 13.976562 -1.785156 L 4.210938 -1.785156 L 4.210938 -7.933594 L 13.226562 -7.871094 L 13.226562 -9.433594 L 4.210938 -9.367188 L 4.210938 -15.03125 L 13.796875 -15.03125 L 13.796875 -16.820312 L 1.828125 -16.820312 C 1.894531 -14.855469 1.960938 -10.734375 1.960938 -8.375 C 1.960938 -6.105469 1.894531 -1.917969 1.828125 0 Z M 1.828125 0 "/></g></g></g><g fill="#ffffff" fill-opacity="1"><g transform="translate(178.962015, 293.211163)"><g/></g></g><g fill="#ffffff" fill-opacity="1"><g transform="translate(193.353418, 293.211163)"><g><path d="M 1.828125 0 L 4.230469 0 C 4.1875 -1.410156 4.167969 -3.417969 4.167969 -5.003906 C 4.167969 -5.578125 4.121094 -6.128906 4.078125 -6.699219 L 4.277344 -6.722656 C 4.539062 -6.347656 4.695312 -5.773438 5.511719 -5.773438 L 9.125 -5.773438 C 13.050781 -5.773438 14.945312 -7.429688 14.945312 -11.328125 C 14.945312 -15.585938 12.277344 -16.820312 8.066406 -16.820312 L 1.828125 -16.820312 C 1.851562 -14.085938 1.875 -11.285156 1.875 -8.398438 C 1.875 -5.511719 1.851562 -2.734375 1.828125 0 Z M 4.167969 -7.339844 C 4.167969 -7.382812 4.167969 -7.472656 4.167969 -7.539062 L 4.1875 -15.144531 L 8.113281 -15.144531 C 10.976562 -15.144531 12.652344 -14.0625 12.652344 -11.199219 C 12.652344 -8.332031 10.84375 -7.339844 8.113281 -7.339844 Z M 4.167969 -7.339844 "/></g></g></g><g fill="#ffffff" fill-opacity="1"><g transform="translate(218.297817, 293.211163)"><g><path d="M 15.496094 0 C 13.777344 -4.828125 11 -12.585938 9.609375 -16.820312 L 5.820312 -16.820312 C 4.476562 -12.628906 1.566406 -4.5625 -0.0429688 0 L 2.445312 0 C 2.953125 -1.453125 3.484375 -2.976562 4.011719 -4.585938 C 5.113281 -4.605469 6.328125 -4.605469 7.691406 -4.605469 C 8.574219 -4.605469 9.984375 -4.585938 11.441406 -4.585938 L 13.027344 0 Z M 4.496094 -6.0625 C 5.511719 -9.082031 6.546875 -12.34375 7.582031 -15.78125 L 7.804688 -15.78125 C 8.398438 -13.359375 9.722656 -9.5 10.910156 -6.0625 Z M 4.496094 -6.0625 "/></g></g></g><g fill="#ffffff" fill-opacity="1"><g transform="translate(242.845655, 293.211163)"><g><path d="M 1.828125 0 L 4.1875 0 C 4.1875 -2.070312 4.210938 -4.804688 4.210938 -7.007812 L 8.242188 -7.007812 C 10.558594 -7.007812 11.460938 -5.953125 12.210938 -3.8125 C 12.453125 -2.800781 13.027344 -0.96875 13.292969 0 L 15.78125 0 C 15.472656 -0.902344 14.8125 -3.042969 14.570312 -3.859375 C 13.820312 -6.347656 12.675781 -7.363281 10.226562 -7.539062 L 10.226562 -7.804688 C 13.160156 -7.847656 14.96875 -9.191406 14.96875 -12.277344 C 14.96875 -15.847656 12.742188 -16.820312 8.441406 -16.820312 L 1.828125 -16.820312 C 1.875 -14.636719 1.960938 -10.667969 1.960938 -8.375 C 1.960938 -6.0625 1.875 -2.269531 1.828125 0 Z M 4.1875 -8.308594 C 4.1875 -8.664062 4.1875 -9.039062 4.1875 -9.390625 L 4.1875 -15.144531 L 8.132812 -15.144531 C 11.175781 -15.144531 12.585938 -14.4375 12.585938 -11.769531 C 12.585938 -9.457031 11.375 -8.308594 8.089844 -8.308594 Z M 4.1875 -8.308594 "/></g></g></g><g fill="#ffffff" fill-opacity="1"><g transform="translate(268.627247, 293.211163)"><g><path d="M 9.214844 -7.316406 C 8.199219 -8.53125 8.089844 -8.617188 6.746094 -8.75 L 6.746094 -8.992188 C 8.066406 -9.148438 8.222656 -9.214844 9.257812 -10.359375 L 15.144531 -16.820312 L 12.5 -16.820312 L 5.820312 -9.324219 L 4.121094 -9.324219 L 4.230469 -16.820312 L 1.828125 -16.820312 C 1.875 -13.996094 1.894531 -11.132812 1.894531 -8.398438 C 1.894531 -5.664062 1.875 -2.800781 1.828125 0 L 4.230469 0 C 4.210938 -1.257812 4.144531 -6.195312 4.121094 -8.375 L 5.839844 -8.375 L 13.117188 0 L 15.828125 0 Z M 9.214844 -7.316406 "/></g></g></g></svg>