<svg xmlns="http://www.w3.org/2000/svg" xmlns:xlink="http://www.w3.org/1999/xlink" zoomAndPan="magnify" preserveAspectRatio="xMidYMid meet" version="1.0" viewBox="16.72 81.43 310.35 90.32"><defs><g/><clipPath id="id1"><path d="M 16.691406 81.433594 L 123.191406 81.433594 L 123.191406 143.683594 L 16.691406 143.683594 Z M 16.691406 81.433594 " clip-rule="nonzero"/></clipPath></defs><g clip-path="url(#id1)"><path fill="#eba13f" d="M 123.101562 81.625 C 123.070312 81.566406 123.011719 81.5 122.929688 81.5 L 98.1875 81.453125 C 98.164062 81.453125 98.144531 81.457031 98.125 81.46875 L 98.113281 81.472656 C 98.066406 81.5 98.019531 81.5625 97.992188 81.632812 L 91.601562 98.351562 L 85.199219 115.84375 L 84.625 114.28125 L 78.496094 97.535156 C 78.402344 97.277344 78.386719 96.996094 78.449219 96.734375 L 60.6875 96.734375 L 76.363281 137.773438 L 78.550781 143.496094 C 78.59375 143.605469 78.671875 143.679688 78.746094 143.679688 L 91.925781 143.679688 C 92.003906 143.679688 92.082031 143.605469 92.121094 143.496094 L 110.054688 96.558594 C 110.207031 96.15625 110.539062 95.894531 110.898438 95.894531 L 117.742188 95.882812 C 117.820312 95.882812 117.898438 95.8125 117.941406 95.703125 L 123.128906 82.054688 C 123.191406 81.886719 123.15625 81.722656 123.101562 81.625 Z M 41.695312 81.453125 C 41.773438 81.453125 41.851562 81.523438 41.894531 81.632812 L 63.519531 138.238281 L 65.386719 143.125 C 65.449219 143.292969 65.414062 143.453125 65.359375 143.550781 C 65.328125 143.609375 65.273438 143.679688 65.1875 143.679688 L 47.960938 143.679688 C 47.882812 143.679688 47.804688 143.605469 47.761719 143.496094 L 29.828125 96.558594 C 29.675781 96.15625 29.34375 95.894531 28.984375 95.894531 L 22.140625 95.882812 C 22.0625 95.882812 21.984375 95.8125 21.941406 95.699219 L 16.757812 82.054688 C 16.695312 81.886719 16.726562 81.722656 16.78125 81.625 C 16.816406 81.566406 16.871094 81.5 16.957031 81.5 L 24.3125 81.511719 L 24.402344 81.46875 C 24.425781 81.457031 24.445312 81.453125 24.464844 81.453125 L 41.695312 81.453125 " fill-opacity="1" fill-rule="nonzero"/></g><g fill="#d67a00" fill-opacity="1"><g transform="translate(112.937024, 144.249851)"><g><path d="M 14.507812 0.503906 C 23.636719 0.503906 27.714844 -3.535156 27.714844 -13.605469 C 27.714844 -23.925781 23.855469 -28.039062 14.183594 -28.039062 C 4.835938 -28.039062 1.082031 -23.960938 1.082031 -13.820312 C 1.082031 -3.574219 4.621094 0.503906 14.507812 0.503906 Z M 14.472656 -7.144531 C 12.738281 -7.144531 11.800781 -9.816406 11.800781 -13.894531 C 11.800781 -16.492188 11.910156 -18.222656 12.269531 -19.597656 C 12.847656 -20.101562 13.714844 -20.355469 14.328125 -20.355469 C 16.023438 -20.355469 16.996094 -17.648438 16.996094 -13.675781 C 16.996094 -11.113281 16.816406 -9.167969 16.421875 -7.722656 C 15.988281 -7.289062 15.011719 -7.144531 14.472656 -7.144531 Z M 14.472656 -7.144531 "/></g></g></g><g fill="#d67a00" fill-opacity="1"><g transform="translate(141.734021, 144.249851)"><g><path d="M 14.507812 0.503906 C 23.636719 0.503906 27.714844 -3.535156 27.714844 -13.605469 C 27.714844 -23.925781 23.855469 -28.039062 14.183594 -28.039062 C 4.835938 -28.039062 1.082031 -23.960938 1.082031 -13.820312 C 1.082031 -3.574219 4.621094 0.503906 14.507812 0.503906 Z M 14.472656 -7.144531 C 12.738281 -7.144531 11.800781 -9.816406 11.800781 -13.894531 C 11.800781 -16.492188 11.910156 -18.222656 12.269531 -19.597656 C 12.847656 -20.101562 13.714844 -20.355469 14.328125 -20.355469 C 16.023438 -20.355469 16.996094 -17.648438 16.996094 -13.675781 C 16.996094 -11.113281 16.816406 -9.167969 16.421875 -7.722656 C 15.988281 -7.289062 15.011719 -7.144531 14.472656 -7.144531 Z M 14.472656 -7.144531 "/></g></g></g><g fill="#d67a00" fill-opacity="1"><g transform="translate(170.531019, 144.249851)"><g><path d="M 1.445312 0 L 15.230469 0 C 24.359375 0 27.789062 -4.511719 27.789062 -13.785156 C 27.789062 -22.878906 23.78125 -27.535156 14.398438 -27.535156 L 1.445312 -27.535156 C 1.585938 -23.421875 1.660156 -18.367188 1.660156 -13.785156 C 1.660156 -9.203125 1.585938 -4.582031 1.445312 0 Z M 12.269531 -7.21875 L 12.269531 -20.316406 L 14.003906 -20.316406 C 16.277344 -20.316406 16.890625 -18.367188 16.890625 -13.675781 C 16.890625 -9.023438 16.527344 -7.21875 14.21875 -7.21875 Z M 12.269531 -7.21875 "/></g></g></g><g fill="#d67a00" fill-opacity="1"><g transform="translate(199.400187, 144.249851)"><g><path d="M 2.742188 0 L 17.863281 0 L 18.839844 -12.628906 C 18.980469 -14.183594 19.089844 -15.699219 19.234375 -17.25 L 20.066406 -17.25 C 20.246094 -14.617188 20.316406 -14.363281 20.5 -12.628906 L 21.507812 0 L 36.59375 0 C 36.847656 -6.351562 38.253906 -21.039062 39.300781 -27.535156 L 28.582031 -27.535156 C 28.183594 -22.050781 27.789062 -15.949219 27.210938 -9.167969 L 26.488281 -9.167969 L 24.574219 -27.535156 L 14.796875 -27.535156 L 12.847656 -9.167969 L 12.089844 -9.167969 C 11.730469 -13.425781 11.113281 -22.015625 10.753906 -27.535156 L 0 -27.535156 C 1.082031 -20.101562 1.804688 -12.773438 2.742188 0 Z M 2.742188 0 "/></g></g></g><g fill="#d67a00" fill-opacity="1"><g transform="translate(238.698344, 144.249851)"><g><path d="M 14.507812 0.503906 C 23.636719 0.503906 27.714844 -3.535156 27.714844 -13.605469 C 27.714844 -23.925781 23.855469 -28.039062 14.183594 -28.039062 C 4.835938 -28.039062 1.082031 -23.960938 1.082031 -13.820312 C 1.082031 -3.574219 4.621094 0.503906 14.507812 0.503906 Z M 14.472656 -7.144531 C 12.738281 -7.144531 11.800781 -9.816406 11.800781 -13.894531 C 11.800781 -16.492188 11.910156 -18.222656 12.269531 -19.597656 C 12.847656 -20.101562 13.714844 -20.355469 14.328125 -20.355469 C 16.023438 -20.355469 16.996094 -17.648438 16.996094 -13.675781 C 16.996094 -11.113281 16.816406 -9.167969 16.421875 -7.722656 C 15.988281 -7.289062 15.011719 -7.144531 14.472656 -7.144531 Z M 14.472656 -7.144531 "/></g></g></g><g fill="#d67a00" fill-opacity="1"><g transform="translate(267.49535, 144.249851)"><g><path d="M 1.445312 0 L 12.304688 0 C 12.304688 -0.542969 12.234375 -7.6875 12.304688 -8.949219 L 15.15625 -8.949219 C 17.324219 -8.949219 17.464844 -8.226562 17.464844 -6.28125 C 17.464844 -3.824219 17.609375 -2.019531 17.863281 0 L 29.59375 0 C 29.125 -1.335938 28.507812 -5.160156 28.507812 -6.53125 C 28.507812 -10.105469 26.054688 -11.910156 18.839844 -11.910156 L 18.839844 -12.558594 C 25.621094 -12.558594 28.507812 -14.289062 28.507812 -20.136719 C 28.507812 -26.199219 24.035156 -27.535156 16.203125 -27.535156 L 1.445312 -27.535156 C 1.550781 -22.914062 1.625 -18.367188 1.625 -13.75 C 1.625 -9.167969 1.550781 -4.621094 1.445312 0 Z M 12.160156 -14.867188 L 12.160156 -20.28125 L 14.21875 -20.28125 C 16.023438 -20.28125 17.285156 -19.738281 17.285156 -17.648438 C 17.285156 -15.480469 15.949219 -14.867188 14.363281 -14.867188 Z M 12.160156 -14.867188 "/></g></g></g><g fill="#d67a00" fill-opacity="1"><g transform="translate(298.168838, 144.249851)"><g><path d="M 24.574219 -10.25 C 23.601562 -12.59375 23.023438 -12.882812 16.851562 -13.53125 L 16.851562 -14.074219 C 22.808594 -14.796875 23.710938 -15.085938 24.574219 -17.285156 L 28.652344 -27.535156 L 17.25 -27.535156 L 13.027344 -15.914062 L 12.015625 -15.914062 L 12.304688 -27.535156 L 1.445312 -27.535156 C 1.550781 -22.878906 1.625 -17.828125 1.625 -13.75 C 1.625 -9.636719 1.550781 -4.621094 1.445312 0 L 12.304688 0 L 12.015625 -11.441406 L 12.992188 -11.441406 L 16.960938 0 L 28.871094 0 Z M 24.574219 -10.25 "/></g></g></g><g fill="#191919" fill-opacity="1"><g transform="translate(164.970484, 171.741618)"><g><path d="M 1.484375 0 L 7.265625 0 C 10.9375 0 12.601562 -0.964844 12.601562 -3.667969 C 12.601562 -5.800781 11.3125 -6.710938 8.394531 -6.910156 L 8.394531 -7.125 C 11.097656 -7.339844 12.277344 -8.289062 12.277344 -10.292969 C 12.277344 -12.90625 10.433594 -13.65625 6.980469 -13.65625 L 1.484375 -13.65625 C 1.539062 -11.5625 1.574219 -8.539062 1.574219 -6.800781 C 1.574219 -5.191406 1.519531 -1.558594 1.484375 0 Z M 3.402344 -7.5 C 3.402344 -7.644531 3.402344 -7.75 3.402344 -7.894531 L 3.402344 -12.367188 L 6.835938 -12.367188 C 9.234375 -12.367188 10.363281 -11.761719 10.363281 -9.917969 C 10.363281 -8.359375 9.414062 -7.5 6.800781 -7.5 Z M 3.382812 -1.414062 C 3.382812 -1.558594 3.382812 -1.71875 3.382812 -1.878906 L 3.382812 -6.496094 L 6.800781 -6.496094 C 9.523438 -6.496094 10.722656 -5.65625 10.722656 -3.957031 C 10.722656 -2.148438 9.738281 -1.414062 6.980469 -1.414062 Z M 3.382812 -1.414062 "/></g></g></g><g fill="#191919" fill-opacity="1"><g transform="translate(185.691847, 171.741618)"><g><path d="M 1.484375 0 L 3.4375 0 C 3.363281 -2.273438 3.363281 -4.546875 3.363281 -6.835938 C 3.363281 -9.109375 3.363281 -11.382812 3.4375 -13.65625 L 1.484375 -13.65625 C 1.519531 -11.367188 1.539062 -9.109375 1.539062 -6.820312 C 1.539062 -4.546875 1.519531 -2.273438 1.484375 0 Z M 1.484375 0 "/></g></g></g><g fill="#191919" fill-opacity="1"><g transform="translate(198.004617, 171.741618)"><g><path d="M 7.480469 -5.941406 C 6.660156 -6.925781 6.570312 -7 5.476562 -7.105469 L 5.476562 -7.304688 C 6.550781 -7.429688 6.675781 -7.480469 7.519531 -8.414062 L 12.296875 -13.65625 L 10.148438 -13.65625 L 4.726562 -7.570312 L 3.347656 -7.570312 L 3.4375 -13.65625 L 1.484375 -13.65625 C 1.519531 -11.367188 1.539062 -9.039062 1.539062 -6.820312 C 1.539062 -4.601562 1.519531 -2.273438 1.484375 0 L 3.4375 0 C 3.417969 -1.019531 3.363281 -5.03125 3.347656 -6.800781 L 4.742188 -6.800781 L 10.648438 0 L 12.851562 0 Z M 7.480469 -5.941406 "/></g></g></g><g fill="#191919" fill-opacity="1"><g transform="translate(218.529189, 171.741618)"><g><path d="M 1.484375 0 L 11.347656 0 L 11.347656 -1.449219 L 3.417969 -1.449219 L 3.417969 -6.445312 L 10.738281 -6.390625 L 10.738281 -7.660156 L 3.417969 -7.605469 L 3.417969 -12.207031 L 11.207031 -12.207031 L 11.207031 -13.65625 L 1.484375 -13.65625 C 1.539062 -12.0625 1.59375 -8.71875 1.59375 -6.800781 C 1.59375 -4.957031 1.539062 -1.558594 1.484375 0 Z M 1.484375 0 "/></g></g></g><g fill="#191919" fill-opacity="1"><g transform="translate(249.684805, 171.741618)"><g><path d="M 1.484375 0 L 3.4375 0 C 3.402344 -1.144531 3.382812 -2.773438 3.382812 -4.0625 C 3.382812 -4.527344 3.347656 -4.976562 3.3125 -5.441406 L 3.472656 -5.460938 C 3.6875 -5.15625 3.8125 -4.691406 4.476562 -4.691406 L 7.410156 -4.691406 C 10.597656 -4.691406 12.136719 -6.03125 12.136719 -9.199219 C 12.136719 -12.65625 9.96875 -13.65625 6.550781 -13.65625 L 1.484375 -13.65625 C 1.503906 -11.4375 1.519531 -9.164062 1.519531 -6.820312 C 1.519531 -4.476562 1.503906 -2.21875 1.484375 0 Z M 3.382812 -5.960938 C 3.382812 -5.996094 3.382812 -6.066406 3.382812 -6.121094 L 3.402344 -12.296875 L 6.585938 -12.296875 C 8.914062 -12.296875 10.273438 -11.421875 10.273438 -9.09375 C 10.273438 -6.765625 8.808594 -5.960938 6.585938 -5.960938 Z M 3.382812 -5.960938 "/></g></g></g><g fill="#191919" fill-opacity="1"><g transform="translate(269.941011, 171.741618)"><g><path d="M 12.582031 0 C 11.1875 -3.921875 8.933594 -10.222656 7.804688 -13.65625 L 4.726562 -13.65625 C 3.632812 -10.257812 1.269531 -3.707031 -0.0351562 0 L 1.988281 0 C 2.398438 -1.179688 2.828125 -2.417969 3.257812 -3.722656 C 4.152344 -3.742188 5.136719 -3.742188 6.246094 -3.742188 C 6.964844 -3.742188 8.109375 -3.722656 9.289062 -3.722656 L 10.578125 0 Z M 3.652344 -4.921875 C 4.476562 -7.375 5.316406 -10.023438 6.15625 -12.816406 L 6.335938 -12.816406 C 6.820312 -10.847656 7.894531 -7.714844 8.859375 -4.921875 Z M 3.652344 -4.921875 "/></g></g></g><g fill="#191919" fill-opacity="1"><g transform="translate(289.875189, 171.741618)"><g><path d="M 1.484375 0 L 3.402344 0 C 3.402344 -1.683594 3.417969 -3.902344 3.417969 -5.691406 L 6.695312 -5.691406 C 8.574219 -5.691406 9.308594 -4.832031 9.917969 -3.097656 C 10.113281 -2.273438 10.578125 -0.789062 10.792969 0 L 12.816406 0 C 12.566406 -0.734375 12.027344 -2.46875 11.832031 -3.132812 C 11.222656 -5.15625 10.292969 -5.976562 8.304688 -6.121094 L 8.304688 -6.335938 C 10.6875 -6.371094 12.152344 -7.464844 12.152344 -9.96875 C 12.152344 -12.871094 10.347656 -13.65625 6.855469 -13.65625 L 1.484375 -13.65625 C 1.519531 -11.886719 1.59375 -8.664062 1.59375 -6.800781 C 1.59375 -4.921875 1.519531 -1.84375 1.484375 0 Z M 3.402344 -6.75 C 3.402344 -7.035156 3.402344 -7.339844 3.402344 -7.625 L 3.402344 -12.296875 L 6.605469 -12.296875 C 9.074219 -12.296875 10.222656 -11.722656 10.222656 -9.558594 C 10.222656 -7.679688 9.234375 -6.75 6.570312 -6.75 Z M 3.402344 -6.75 "/></g></g></g><g fill="#191919" fill-opacity="1"><g transform="translate(310.811241, 171.741618)"><g><path d="M 7.480469 -5.941406 C 6.660156 -6.925781 6.570312 -7 5.476562 -7.105469 L 5.476562 -7.304688 C 6.550781 -7.429688 6.675781 -7.480469 7.519531 -8.414062 L 12.296875 -13.65625 L 10.148438 -13.65625 L 4.726562 -7.570312 L 3.347656 -7.570312 L 3.4375 -13.65625 L 1.484375 -13.65625 C 1.519531 -11.367188 1.539062 -9.039062 1.539062 -6.820312 C 1.539062 -4.601562 1.519531 -2.273438 1.484375 0 L 3.4375 0 C 3.417969 -1.019531 3.363281 -5.03125 3.347656 -6.800781 L 4.742188 -6.800781 L 10.648438 0 L 12.851562 0 Z M 7.480469 -5.941406 "/></g></g></g></svg>